<svg width="16" height="16" viewBox="0 0 16 16" fill="none" xmlns="http://www.w3.org/2000/svg">
<g clip-path="url(#clip0_24_99)">
<path d="M7.99996 15.3332C6.54957 15.3332 5.13174 14.9031 3.92578 14.0973C2.71982 13.2915 1.77989 12.1462 1.22485 10.8062C0.669803 9.4662 0.524579 7.99171 0.807537 6.56918C1.0905 5.14665 1.78893 3.83998 2.81451 2.81439C3.8401 1.78881 5.14677 1.09037 6.5693 0.807415C7.99183 0.524457 9.46632 0.669681 10.8063 1.22472C12.1463 1.77977 13.2916 2.7197 14.0974 3.92566C14.9032 5.13162 15.3333 6.54944 15.3333 7.99984C15.3333 9.94476 14.5607 11.81 13.1854 13.1853C11.8101 14.5606 9.94488 15.3332 7.99996 15.3332ZM7.99996 1.99984C6.81327 1.99984 5.65324 2.35173 4.66654 3.01102C3.67985 3.67031 2.91081 4.60738 2.45669 5.70374C2.00256 6.8001 1.88374 8.0065 2.11525 9.17038C2.34676 10.3343 2.91821 11.4034 3.75732 12.2425C4.59644 13.0816 5.66553 13.653 6.82942 13.8846C7.99331 14.1161 9.19971 13.9972 10.2961 13.5431C11.3924 13.089 12.3295 12.32 12.9888 11.3333C13.6481 10.3466 14 9.18653 14 7.99984C14 6.40854 13.3678 4.88242 12.2426 3.7572C11.1174 2.63198 9.59126 1.99984 7.99996 1.99984Z" fill="#6C00FF"/>
<path d="M6.66671 11.3335C6.57897 11.334 6.492 11.3171 6.41077 11.284C6.32955 11.2508 6.25567 11.2019 6.19338 11.1401L4.19338 9.14012C4.06784 9.01459 3.99731 8.84432 3.99731 8.66679C3.99731 8.48926 4.06784 8.31899 4.19338 8.19346C4.31891 8.06792 4.48917 7.9974 4.66671 7.9974C4.84424 7.9974 5.01451 8.06792 5.14004 8.19346L6.66671 9.72679L10.5267 5.86012C10.6522 5.73459 10.8225 5.66406 11 5.66406C11.1776 5.66406 11.3478 5.73459 11.4734 5.86012C11.5989 5.98566 11.6694 6.15592 11.6694 6.33346C11.6694 6.51099 11.5989 6.68125 11.4734 6.80679L7.14004 11.1401C7.07775 11.2019 7.00387 11.2508 6.92265 11.284C6.84142 11.3171 6.75445 11.334 6.66671 11.3335Z" fill="#6C00FF"/>
</g>
<defs>
<clipPath id="clip0_24_99">
<rect width="16" height="16" fill="white"/>
</clipPath>
</defs>
</svg>
