<svg width="25" height="25" viewBox="0 0 25 25" fill="none" xmlns="http://www.w3.org/2000/svg">
<path fill-rule="evenodd" clip-rule="evenodd" d="M3.64575 10.7479C3.64575 5.9563 7.64979 2.0835 12.493 2.0835C17.35 2.0835 21.3541 5.9563 21.3541 10.7479C21.3541 13.1623 20.476 15.4039 19.0307 17.3039C17.4362 19.3996 15.471 21.2257 13.2588 22.6589C12.7525 22.9902 12.2956 23.0152 11.7399 22.6589C9.51527 21.2257 7.55001 19.3996 5.96919 17.3039C4.52281 15.4039 3.64575 13.1623 3.64575 10.7479ZM9.57724 11.0177C9.57724 12.6228 10.8871 13.8853 12.493 13.8853C14.1001 13.8853 15.4226 12.6228 15.4226 11.0177C15.4226 9.42495 14.1001 8.10103 12.493 8.10103C10.8871 8.10103 9.57724 9.42495 9.57724 11.0177Z" fill="#6C00FF"/>
</svg>
