<svg width="25" height="25" viewBox="0 0 25 25" fill="none" xmlns="http://www.w3.org/2000/svg">
<path fill-rule="evenodd" clip-rule="evenodd" d="M17.6455 3.125C19.0423 3.125 20.3861 3.67708 21.3746 4.66771C22.3642 5.65625 22.9173 6.98958 22.9173 8.38542V16.6146C22.9173 19.5208 20.5527 21.875 17.6455 21.875H7.35482C4.44753 21.875 2.08398 19.5208 2.08398 16.6146V8.38542C2.08398 5.47917 4.43711 3.125 7.35482 3.125H17.6455ZM19.3027 9.9375L19.3861 9.85417C19.635 9.55208 19.635 9.11458 19.3746 8.8125C19.2298 8.65729 19.0309 8.5625 18.8236 8.54167C18.6048 8.53021 18.3965 8.60417 18.2392 8.75L13.5423 12.5C12.9382 13.001 12.0725 13.001 11.459 12.5L6.77148 8.75C6.44753 8.51042 5.99961 8.54167 5.72982 8.82292C5.44857 9.10417 5.41732 9.55208 5.65586 9.86458L5.79232 10L10.5319 13.6979C11.1152 14.1562 11.8225 14.4062 12.5632 14.4062C13.3017 14.4062 14.0215 14.1562 14.6038 13.6979L19.3027 9.9375Z" fill="#6C00FF"/>
</svg>
