<svg width="40" height="40" viewBox="0 0 40 40" fill="none" xmlns="http://www.w3.org/2000/svg">
<path d="M29.2666 3.33325H10.6833C6.63331 3.33325 3.33331 6.63325 3.33331 10.6833V21.5166V21.8499C3.33331 25.9166 6.63331 29.1999 10.6833 29.1999H17.0833C18 29.1999 18.75 29.9499 18.75 30.8666V32.4833C18.75 33.3999 18 34.1499 17.0833 34.1499H13.05C12.3666 34.1499 11.8 34.7166 11.8 35.3999C11.8 36.0833 12.35 36.6666 13.05 36.6666H26.9666C27.65 36.6666 28.2166 36.0999 28.2166 35.4166C28.2166 34.7333 27.65 34.1666 26.9666 34.1666H22.9333C22.0166 34.1666 21.2666 33.4166 21.2666 32.4999V30.8833C21.2666 29.9666 22.0166 29.2166 22.9333 29.2166H29.2833C33.35 29.2166 36.6333 25.9166 36.6333 21.8666V21.5333V10.6999C36.6166 6.63325 33.3166 3.33325 29.2666 3.33325Z" fill="white"/>
</svg>
