<svg width="40" height="40" viewBox="0 0 40 40" fill="none" xmlns="http://www.w3.org/2000/svg">
<path d="M33.6805 13.0357L20.8472 20.469C20.3305 20.769 19.6805 20.769 19.1472 20.469L6.31376 13.0357C5.39709 12.5023 5.16376 11.2523 5.86376 10.469C6.34709 9.91901 6.89709 9.46901 7.48043 9.15234L16.5138 4.15234C18.4472 3.06901 21.5805 3.06901 23.5138 4.15234L32.5472 9.15234C33.1305 9.46901 33.6805 9.93568 34.1638 10.469C34.8305 11.2523 34.5972 12.5023 33.6805 13.0357Z" fill="white"/>
<path d="M19.0508 23.5649V34.9316C19.0508 36.1983 17.7675 37.0316 16.6341 36.4816C13.2008 34.7983 7.41744 31.6483 7.41744 31.6483C5.3841 30.4983 3.71744 27.5983 3.71744 25.2149V16.6149C3.71744 15.2983 5.10077 14.4649 6.2341 15.1149L18.2175 22.0649C18.7175 22.3816 19.0508 22.9483 19.0508 23.5649Z" fill="white"/>
<path d="M20.9505 23.5649V34.9316C20.9505 36.1983 22.2338 37.0316 23.3672 36.4816C26.8005 34.7983 32.5838 31.6483 32.5838 31.6483C34.6172 30.4983 36.2838 27.5983 36.2838 25.2149V16.6149C36.2838 15.2983 34.9005 14.4649 33.7672 15.1149L21.7838 22.0649C21.2838 22.3816 20.9505 22.9483 20.9505 23.5649Z" fill="white"/>
</svg>
