<svg width="40" height="40" viewBox="0 0 40 40" fill="none" xmlns="http://www.w3.org/2000/svg">
<path d="M27.0666 3.33325H12.9333C8.33329 3.33325 6.66663 4.99992 6.66663 9.68325V30.3166C6.66663 34.9999 8.33329 36.6666 12.9333 36.6666H27.05C31.6666 36.6666 33.3333 34.9999 33.3333 30.3166V9.68325C33.3333 4.99992 31.6666 3.33325 27.0666 3.33325ZM20 32.1666C18.4 32.1666 17.0833 30.8499 17.0833 29.2499C17.0833 27.6499 18.4 26.3333 20 26.3333C21.6 26.3333 22.9166 27.6499 22.9166 29.2499C22.9166 30.8499 21.6 32.1666 20 32.1666ZM23.3333 10.4166H16.6666C15.9833 10.4166 15.4166 9.84992 15.4166 9.16658C15.4166 8.48325 15.9833 7.91658 16.6666 7.91658H23.3333C24.0166 7.91658 24.5833 8.48325 24.5833 9.16658C24.5833 9.84992 24.0166 10.4166 23.3333 10.4166Z" fill="white"/>
</svg>
