<svg width="20" height="24" viewBox="0 0 20 24" fill="none" xmlns="http://www.w3.org/2000/svg">
<path d="M7.99976 2.66799L7.99976 16.508L3.4132 11.9213C2.63986 11.148 1.35986 11.148 0.58653 11.9213C-0.186803 12.6947 -0.186803 13.9747 0.58653 14.748L8.58642 22.7481C9.35976 23.5215 10.6398 23.5215 11.4131 22.7481L19.4131 14.748C19.8131 14.348 19.9998 13.8413 19.9998 13.3347C19.9998 12.828 19.8131 12.3213 19.4131 11.9213C18.6398 11.148 17.3598 11.148 16.5864 11.9213L11.9998 16.508L11.9998 2.66799C11.9998 1.57466 11.0931 0.667993 9.99976 0.667993C8.90642 0.667993 7.99976 1.57466 7.99976 2.66799Z" fill="white"/>
</svg>
